<svg width="14" height="17" viewBox="0 0 14 17" fill="none" xmlns="http://www.w3.org/2000/svg">
<path d="M11 5.3125V4.25C11 1.90652 9.20559 0 7 0C4.79437 0 3 1.90652 3 4.25V5.3125H0V14.3438C0 15.8108 1.11928 17 2.5 17H11.5C12.8807 17 14 15.8108 14 14.3438V5.3125H11ZM5 4.25C5 3.07826 5.89719 2.125 7 2.125C8.10281 2.125 9 3.07826 9 4.25V5.3125H5V4.25ZM10 8.23438C9.58578 8.23438 9.25 7.87761 9.25 7.4375C9.25 6.99739 9.58578 6.64062 10 6.64062C10.4142 6.64062 10.75 6.99739 10.75 7.4375C10.75 7.87761 10.4142 8.23438 10 8.23438ZM4 8.23438C3.58578 8.23438 3.25 7.87761 3.25 7.4375C3.25 6.99739 3.58578 6.64062 4 6.64062C4.41422 6.64062 4.75 6.99739 4.75 7.4375C4.75 7.87761 4.41422 8.23438 4 8.23438Z" fill="white"/>
</svg>
