<svg width="14" height="14" viewBox="0 0 14 14" fill="none" xmlns="http://www.w3.org/2000/svg">
<path d="M1.79291 1.11161C1.84505 1.05947 1.89491 1.02322 1.93547 0.999653L13.2727 12.3369C13.2491 12.3774 13.2129 12.4273 13.1607 12.4795C13.1086 12.5316 13.0587 12.5678 13.0182 12.5914L1.68095 1.25417C1.70452 1.21362 1.74077 1.16375 1.79291 1.11161ZM13.3072 12.2579C13.3072 12.2579 13.3072 12.2583 13.307 12.2591L13.3072 12.2579ZM12.9392 12.6259C12.9392 12.6259 12.9396 12.6258 12.9404 12.6257L12.9392 12.6259ZM1.64641 1.33321C1.6464 1.33321 1.64645 1.33287 1.64659 1.33219L1.64641 1.33321ZM2.01348 0.965288C2.01417 0.965149 2.01451 0.965101 2.0145 0.965112L2.01348 0.965288Z" fill="black" stroke="black" stroke-width="1.00612"/>
<path d="M1.39778 12.3476C1.42066 12.3881 1.45655 12.4383 1.50904 12.4908C1.56155 12.5433 1.61178 12.5792 1.65224 12.6021L13.2725 0.981838C13.2496 0.941385 13.2137 0.89116 13.1612 0.838665L1.39778 12.3476ZM1.39778 12.3476L13.018 0.727386C13.0585 0.750266 13.1087 0.786153 13.1612 0.838635L1.39778 12.3476ZM13.3043 1.05713C13.3043 1.05714 13.3043 1.05681 13.3042 1.05616L13.3043 1.05713ZM1.72754 12.6339C1.72754 12.6339 1.72722 12.6339 1.72658 12.6338L1.72754 12.6339ZM12.9427 0.695535C12.9427 0.695525 12.943 0.695566 12.9436 0.695682L12.9427 0.695535ZM1.36607 12.2733C1.36595 12.2726 1.36591 12.2723 1.36592 12.2723L1.36607 12.2733Z" fill="black" stroke="black" stroke-width="1.00612"/>
</svg>
