<svg width="12" height="14" viewBox="0 0 12 14" fill="none" xmlns="http://www.w3.org/2000/svg">
<mask id="mask0" mask-type="alpha" maskUnits="userSpaceOnUse" x="0" y="0" width="12" height="1">
<path d="M10.8346 0H0.230979C0.103736 0 0.000457764 0.200029 0.000457764 0.446475C0.000457764 0.692922 0.103736 0.892951 0.230979 0.892951H10.8346C10.9619 0.892951 11.0652 0.692922 11.0652 0.446475C11.0652 0.200029 10.9619 0 10.8346 0Z" fill="black"/>
</mask>
<g mask="url(#mask0)">
<path d="M10.8346 0H0.230979C0.103736 0 0.000457764 0.200029 0.000457764 0.446475C0.000457764 0.692922 0.103736 0.892951 0.230979 0.892951H10.8346C10.9619 0.892951 11.0652 0.692922 11.0652 0.446475C11.0652 0.200029 10.9619 0 10.8346 0Z" fill="black"/>
<path d="M10.8346 -1.00612H0.23098V1.00612H10.8346V-1.00612ZM0.23098 -1.00612C-0.402439 -1.00612 -0.723309 -0.529631 -0.825989 -0.330758C-0.955373 -0.0801673 -1.00566 0.19617 -1.00566 0.446476H1.00658C1.00658 0.450336 1.00793 0.503436 0.962 0.592401C0.9387 0.637516 0.88522 0.726236 0.77909 0.813228C0.66644 0.905569 0.47828 1.00612 0.23098 1.00612V-1.00612ZM-1.00566 0.446476C-1.00566 0.696783 -0.955373 0.97312 -0.825989 1.22371C-0.723309 1.42258 -0.402439 1.89907 0.23098 1.89907V-0.113169C0.47828 -0.113169 0.66644 -0.0126162 0.77909 0.0797244C0.88522 0.166716 0.9387 0.255437 0.962 0.300552C1.00793 0.389517 1.00658 0.442617 1.00658 0.446476H-1.00566ZM0.23098 1.89907H10.8346V-0.113169H0.23098V1.89907ZM10.8346 1.89907C11.4681 1.89907 11.7889 1.42258 11.8916 1.22371C12.021 0.973118 12.0713 0.696781 12.0713 0.446476H10.059C10.059 0.442618 10.0577 0.389519 10.1036 0.300554C10.1269 0.255439 10.1804 0.166718 10.2865 0.0797253C10.3992 -0.0126159 10.5873 -0.113169 10.8346 -0.113169V1.89907ZM12.0713 0.446476C12.0713 0.196138 12.021 -0.0802124 11.8916 -0.330804C11.7889 -0.529675 11.468 -1.00612 10.8346 -1.00612V1.00612C10.5873 1.00612 10.3992 0.905574 10.2865 0.813251C10.1804 0.726271 10.1269 0.637561 10.1036 0.592446C10.0577 0.503481 10.059 0.450368 10.059 0.446476H12.0713Z" fill="black"/>
</g>
<mask id="mask1" mask-type="alpha" maskUnits="userSpaceOnUse" x="0" y="6" width="12" height="2">
<path d="M10.8342 6.25034H0.230519C0.103278 6.25034 0 6.45037 0 6.69681C0 6.94326 0.103278 7.14329 0.230519 7.14329H10.8342C10.9614 7.14329 11.0647 6.94326 11.0647 6.69681C11.0647 6.45037 10.9614 6.25034 10.8342 6.25034Z" fill="black"/>
</mask>
<g mask="url(#mask1)">
<path d="M10.8342 6.25034H0.230519C0.103278 6.25034 0 6.45037 0 6.69681C0 6.94326 0.103278 7.14329 0.230519 7.14329H10.8342C10.9614 7.14329 11.0647 6.94326 11.0647 6.69681C11.0647 6.45037 10.9614 6.25034 10.8342 6.25034Z" fill="black"/>
<path d="M10.8342 5.24422H0.23052V7.25646H10.8342V5.24422ZM0.23052 5.24422C-0.402899 5.24422 -0.723768 5.72071 -0.826448 5.91958C-0.95583 6.17017 -1.00612 6.44651 -1.00612 6.69681H1.00612C1.00612 6.70067 1.00747 6.75377 0.96154 6.84273C0.93825 6.88785 0.88477 6.97657 0.77864 7.06356C0.66598 7.1559 0.47783 7.25646 0.23052 7.25646V5.24422ZM-1.00612 6.69681C-1.00612 6.94712 -0.95583 7.22346 -0.826447 7.47405C-0.723767 7.67292 -0.402898 8.14941 0.23052 8.14941V6.13717C0.47783 6.13717 0.66598 6.23772 0.77864 6.33006C0.88476 6.41705 0.93825 6.50577 0.96154 6.55089C1.00747 6.63985 1.00612 6.69295 1.00612 6.69681H-1.00612ZM0.23052 8.14941H10.8342V6.13717H0.23052V8.14941ZM10.8342 8.14941C11.4676 8.14941 11.7885 7.67292 11.8912 7.47405C12.0205 7.22345 12.0708 6.94712 12.0708 6.69681H10.0586C10.0586 6.69295 10.0572 6.63986 10.1032 6.55089C10.1265 6.50578 10.1799 6.41705 10.2861 6.33006C10.3987 6.23772 10.5869 6.13717 10.8342 6.13717V8.14941ZM12.0708 6.69681C12.0708 6.44647 12.0205 6.17012 11.8911 5.91953C11.7884 5.72066 11.4675 5.24422 10.8342 5.24422V7.25646C10.5869 7.25646 10.3987 7.15591 10.2861 7.06358C10.18 6.9766 10.1265 6.88789 10.1032 6.84278C10.0572 6.75382 10.0586 6.7007 10.0586 6.69681H12.0708Z" fill="black"/>
</g>
<mask id="mask2" mask-type="alpha" maskUnits="userSpaceOnUse" x="0" y="12" width="12" height="2">
<path d="M10.8342 12.5011H0.230519C0.103278 12.5011 0 12.7011 0 12.9475C0 13.1939 0.103278 13.394 0.230519 13.394H10.8342C10.9614 13.394 11.0647 13.1939 11.0647 12.9475C11.0647 12.7011 10.9614 12.5011 10.8342 12.5011Z" fill="black"/>
</mask>
<g mask="url(#mask2)">
<path d="M10.8342 12.5011H0.230519C0.103278 12.5011 0 12.7011 0 12.9475C0 13.1939 0.103278 13.394 0.230519 13.394H10.8342C10.9614 13.394 11.0647 13.1939 11.0647 12.9475C11.0647 12.7011 10.9614 12.5011 10.8342 12.5011Z" fill="black"/>
<path d="M11.0647 12.9475H12.0708V12.9474L11.0647 12.9475ZM10.8342 11.4949H0.23052V13.5072H10.8342V11.4949ZM0.23052 11.4949C-0.402799 11.4949 -0.723689 11.9713 -0.826421 12.1702C-0.955829 12.4208 -1.00612 12.6972 -1.00612 12.9475H1.00612C1.00612 12.9514 1.00747 13.0045 0.96151 13.0935C0.93821 13.1386 0.88471 13.2274 0.77857 13.3143C0.6659 13.4067 0.47776 13.5072 0.23052 13.5072V11.4949ZM-1.00612 12.9475C-1.00612 13.1978 -0.95583 13.4741 -0.826445 13.7247C-0.723762 13.9236 -0.402891 14.4001 0.23052 14.4001V12.3878C0.47782 12.3878 0.66598 12.4884 0.77863 12.5807C0.88476 12.6677 0.93824 12.7564 0.96154 12.8016C1.00747 12.8905 1.00612 12.9436 1.00612 12.9475H-1.00612ZM0.23052 14.4001H10.8342V12.3878H0.23052V14.4001ZM10.8342 14.4001C11.4676 14.4001 11.7885 13.9236 11.8912 13.7247C12.0205 13.4741 12.0708 13.1978 12.0708 12.9475H10.0586C10.0586 12.9436 10.0572 12.8905 10.1032 12.8016C10.1265 12.7565 10.1799 12.6677 10.2861 12.5807C10.3987 12.4884 10.5869 12.3878 10.8342 12.3878V14.4001ZM12.0708 12.9474C12.0708 12.6971 12.0205 12.4208 11.8911 12.1702C11.7884 11.9713 11.4675 11.4949 10.8342 11.4949V13.5072C10.5869 13.5072 10.3988 13.4067 10.2861 13.3143C10.18 13.2274 10.1265 13.1386 10.1032 13.0935C10.0572 13.0045 10.0586 12.9514 10.0586 12.9476L12.0708 12.9474Z" fill="black"/>
</g>
</svg>
