<svg width="12" height="14" viewBox="0 0 12 14" fill="none" xmlns="http://www.w3.org/2000/svg">
<mask id="mask0" mask-type="alpha" maskUnits="userSpaceOnUse" x="0" y="0" width="12" height="1">
<path d="M11.6106 0H1.00701C0.879767 0 0.776489 0.200029 0.776489 0.446475C0.776489 0.692922 0.879767 0.892951 1.00701 0.892951H11.6106C11.7379 0.892951 11.8412 0.692922 11.8412 0.446475C11.8412 0.200029 11.7379 0 11.6106 0Z" fill="white"/>
</mask>
<g mask="url(#mask0)">
<path d="M11.6106 0H1.00701C0.879767 0 0.776489 0.200029 0.776489 0.446475C0.776489 0.692922 0.879767 0.892951 1.00701 0.892951H11.6106C11.7379 0.892951 11.8412 0.692922 11.8412 0.446475C11.8412 0.200029 11.7379 0 11.6106 0Z" fill="white"/>
<path d="M11.6106 -1.00612H1.00701V1.00612H11.6106V-1.00612ZM1.00701 -1.00612C0.373592 -1.00612 0.0527223 -0.529631 -0.0499579 -0.330758C-0.179341 -0.0801673 -0.22963 0.19617 -0.22963 0.446476H1.78261C1.78261 0.450336 1.78396 0.503436 1.73803 0.592401C1.71473 0.637516 1.66125 0.726236 1.55512 0.813228C1.44247 0.905569 1.25431 1.00612 1.00701 1.00612V-1.00612ZM-0.22963 0.446476C-0.22963 0.696783 -0.179341 0.97312 -0.0499579 1.22371C0.0527223 1.42258 0.373592 1.89907 1.00701 1.89907V-0.113169C1.25431 -0.113169 1.44247 -0.0126162 1.55512 0.0797244C1.66125 0.166716 1.71473 0.255437 1.73803 0.300552C1.78396 0.389517 1.78261 0.442617 1.78261 0.446476H-0.22963ZM1.00701 1.89907H11.6106V-0.113169H1.00701V1.89907ZM11.6106 1.89907C12.2441 1.89907 12.5649 1.42258 12.6676 1.22371C12.797 0.973118 12.8473 0.696781 12.8473 0.446476H10.835C10.835 0.442618 10.8337 0.389519 10.8796 0.300554C10.9029 0.255439 10.9564 0.166718 11.0625 0.0797253C11.1752 -0.0126159 11.3633 -0.113169 11.6106 -0.113169V1.89907ZM12.8473 0.446476C12.8473 0.196138 12.797 -0.0802124 12.6676 -0.330804C12.5649 -0.529675 12.244 -1.00612 11.6106 -1.00612V1.00612C11.3633 1.00612 11.1752 0.905574 11.0625 0.813251C10.9564 0.726271 10.9029 0.637561 10.8796 0.592446C10.8337 0.503481 10.835 0.450368 10.835 0.446476H12.8473Z" fill="white"/>
</g>
<mask id="mask1" mask-type="alpha" maskUnits="userSpaceOnUse" x="0" y="6" width="12" height="2">
<path d="M11.6102 6.25034H1.00655C0.879309 6.25034 0.776031 6.45037 0.776031 6.69681C0.776031 6.94326 0.879309 7.14329 1.00655 7.14329H11.6102C11.7374 7.14329 11.8407 6.94326 11.8407 6.69681C11.8407 6.45037 11.7374 6.25034 11.6102 6.25034Z" fill="white"/>
</mask>
<g mask="url(#mask1)">
<path d="M11.6102 6.25034H1.00655C0.879309 6.25034 0.776031 6.45037 0.776031 6.69681C0.776031 6.94326 0.879309 7.14329 1.00655 7.14329H11.6102C11.7374 7.14329 11.8407 6.94326 11.8407 6.69681C11.8407 6.45037 11.7374 6.25034 11.6102 6.25034Z" fill="white"/>
<path d="M11.6102 5.24422H1.00655V7.25646H11.6102V5.24422ZM1.00655 5.24422C0.373133 5.24422 0.0522632 5.72071 -0.0504161 5.91958C-0.179798 6.17017 -0.230087 6.44651 -0.230087 6.69681H1.78215C1.78215 6.70067 1.7835 6.75377 1.73757 6.84273C1.71428 6.88785 1.6608 6.97657 1.55467 7.06356C1.44201 7.1559 1.25386 7.25646 1.00655 7.25646V5.24422ZM-0.230087 6.69681C-0.230087 6.94712 -0.179798 7.22346 -0.0504157 7.47405C0.0522643 7.67292 0.373134 8.14941 1.00655 8.14941V6.13717C1.25386 6.13717 1.44201 6.23772 1.55467 6.33006C1.66079 6.41705 1.71428 6.50577 1.73757 6.55089C1.7835 6.63985 1.78215 6.69295 1.78215 6.69681H-0.230087ZM1.00655 8.14941H11.6102V6.13717H1.00655V8.14941ZM11.6102 8.14941C12.2436 8.14941 12.5645 7.67292 12.6672 7.47405C12.7965 7.22345 12.8468 6.94712 12.8468 6.69681H10.8346C10.8346 6.69295 10.8332 6.63986 10.8792 6.55089C10.9025 6.50578 10.9559 6.41705 11.0621 6.33006C11.1747 6.23772 11.3629 6.13717 11.6102 6.13717V8.14941ZM12.8468 6.69681C12.8468 6.44647 12.7965 6.17012 12.6671 5.91953C12.5644 5.72066 12.2435 5.24422 11.6102 5.24422V7.25646C11.3629 7.25646 11.1747 7.15591 11.0621 7.06358C10.956 6.9766 10.9025 6.88789 10.8792 6.84278C10.8332 6.75382 10.8346 6.7007 10.8346 6.69681H12.8468Z" fill="white"/>
</g>
<mask id="mask2" mask-type="alpha" maskUnits="userSpaceOnUse" x="0" y="12" width="12" height="2">
<path d="M11.6102 12.5011H1.00655C0.879309 12.5011 0.776031 12.7011 0.776031 12.9475C0.776031 13.1939 0.879309 13.394 1.00655 13.394H11.6102C11.7374 13.394 11.8407 13.1939 11.8407 12.9475C11.8407 12.7011 11.7374 12.5011 11.6102 12.5011Z" fill="white"/>
</mask>
<g mask="url(#mask2)">
<path d="M11.6102 12.5011H1.00655C0.879309 12.5011 0.776031 12.7011 0.776031 12.9475C0.776031 13.1939 0.879309 13.394 1.00655 13.394H11.6102C11.7374 13.394 11.8407 13.1939 11.8407 12.9475C11.8407 12.7011 11.7374 12.5011 11.6102 12.5011Z" fill="white"/>
<path d="M11.8407 12.9475H12.8468V12.9474L11.8407 12.9475ZM11.6102 11.4949H1.00655V13.5072H11.6102V11.4949ZM1.00655 11.4949C0.373233 11.4949 0.0523427 11.9713 -0.0503894 12.1702C-0.179797 12.4208 -0.230087 12.6972 -0.230087 12.9475H1.78215C1.78215 12.9514 1.7835 13.0045 1.73754 13.0935C1.71424 13.1386 1.66074 13.2274 1.5546 13.3143C1.44193 13.4067 1.25379 13.5072 1.00655 13.5072V11.4949ZM-0.230087 12.9475C-0.230087 13.1978 -0.179798 13.4741 -0.0504132 13.7247C0.0522699 13.9236 0.373141 14.4001 1.00655 14.4001V12.3878C1.25385 12.3878 1.44201 12.4884 1.55466 12.5807C1.66079 12.6677 1.71427 12.7564 1.73757 12.8016C1.7835 12.8905 1.78215 12.9436 1.78215 12.9475H-0.230087ZM1.00655 14.4001H11.6102V12.3878H1.00655V14.4001ZM11.6102 14.4001C12.2436 14.4001 12.5645 13.9236 12.6672 13.7247C12.7965 13.4741 12.8468 13.1978 12.8468 12.9475H10.8346C10.8346 12.9436 10.8332 12.8905 10.8792 12.8016C10.9025 12.7565 10.9559 12.6677 11.0621 12.5807C11.1747 12.4884 11.3629 12.3878 11.6102 12.3878V14.4001ZM12.8468 12.9474C12.8468 12.6971 12.7965 12.4208 12.6671 12.1702C12.5644 11.9713 12.2435 11.4949 11.6102 11.4949V13.5072C11.3629 13.5072 11.1748 13.4067 11.0621 13.3143C10.956 13.2274 10.9025 13.1386 10.8792 13.0935C10.8332 13.0045 10.8346 12.9514 10.8346 12.9476L12.8468 12.9474Z" fill="white"/>
</g>
</svg>
