<svg width="55" height="18" viewBox="0 0 55 18" fill="none" xmlns="http://www.w3.org/2000/svg">
<path fill-rule="evenodd" clip-rule="evenodd" d="M38.8668 7.22188C39.1696 7.22188 39.3347 7.08511 39.3898 6.78419L39.8302 4.26748C39.8852 3.96657 39.7201 3.74772 39.3898 3.74772H33.435C33.132 3.74772 32.8864 3.50362 32.8864 3.20251C32.8864 3.17164 32.8891 3.14082 32.8943 3.11039L33.3209 0.637326C33.372 0.340543 33.1715 0.0587113 32.8729 0.0078378C32.8422 0.00262202 32.8112 0 32.7802 0H29.8099C29.5436 0 29.3158 0.190124 29.2697 0.450826L27.1965 12.1733C26.4808 16.1672 28.4351 18 31.4903 18C31.9582 18 32.4812 17.9453 32.894 17.8632C33.1693 17.8359 33.3069 17.6717 33.3619 17.3982L33.8023 14.8541C33.8849 14.4985 33.6922 14.3617 33.3619 14.3891H32.6188C31.4903 14.3891 31.0499 13.7325 31.2701 12.5015L32.2059 7.22188H38.8668Z" fill="white"/>
<path fill-rule="evenodd" clip-rule="evenodd" d="M44.4351 6.9977L44.9669 4.0693C44.9939 3.92114 44.8948 3.77935 44.7457 3.7526C44.7297 3.74972 44.7134 3.74827 44.6971 3.74827L41.8672 3.74772L42.4152 0.639291C42.4674 0.342695 42.2679 0.0601365 41.9695 0.00817821C41.9382 0.00273633 41.9065 0 41.8748 0H38.8893C38.6229 0 38.395 0.190218 38.3489 0.451002L36.2797 12.1733C35.5641 16.1672 37.5183 18 40.5736 18C41.0415 18 41.5645 17.9453 41.9773 17.8632C42.2526 17.8359 42.3902 17.6717 42.4453 17.3982L42.8857 14.8541C42.9682 14.4985 42.7756 14.3617 42.4453 14.3891H41.7021C40.5736 14.3891 40.1332 13.7325 40.3534 12.5015L41.2892 7.22188H44.1652C44.2978 7.22188 44.4115 7.12748 44.4351 6.9977Z" fill="white"/>
<path fill-rule="evenodd" clip-rule="evenodd" d="M14.3159 8.5871H25.9758C26.1273 8.5871 26.2501 8.70915 26.2501 8.8597C26.2501 8.87578 26.2487 8.89182 26.2458 8.90765L25.7154 11.8583C25.6605 12.1309 25.4959 12.2672 25.2217 12.2672H17.5963L17.5842 12.3626C17.3099 13.8074 17.9682 14.5162 19.4768 14.5162C21.2675 14.5162 23.0582 14.5162 24.8488 14.5162C25.0003 14.5162 25.1231 14.6383 25.1231 14.7888C25.1231 14.8027 25.1221 14.8165 25.1199 14.8302L24.705 17.5158C24.6639 17.7818 24.4336 17.9783 24.1628 17.9783C22.4088 17.9783 20.6548 17.9783 18.9008 17.9783C15.3076 17.9783 12.8115 15.7974 13.4424 12.2536L14.0457 8.8129C14.0686 8.68237 14.1826 8.5871 14.3159 8.5871Z" fill="white"/>
<path fill-rule="evenodd" clip-rule="evenodd" d="M11.9973 13.753C12.5733 10.5635 9.94015 9.52758 7.82812 9.06415C6.51153 8.76428 5.64077 8.58709 5.80186 7.90558C5.96295 7.22407 6.53896 7.22407 7.55383 7.22407C18.2436 7.22407 28.9334 7.22407 39.6232 7.22407C40.2887 7.22407 40.8582 6.74925 40.9738 6.09791L41.3058 4.22832C41.3453 4.00592 41.1959 3.79382 40.9721 3.75457C40.9485 3.75043 40.9246 3.74835 40.9006 3.74835C29.913 3.74835 18.9254 3.74835 7.93784 3.74835C4.61892 3.74835 2.31489 4.92055 1.73888 7.67386C1.13544 10.618 3.2749 11.8175 5.96295 12.3627C7.06011 12.608 7.99618 12.8125 7.85904 13.494C7.72189 14.1755 7.03268 14.4345 5.71608 14.4345C4.1711 14.4345 2.62612 14.4345 1.08114 14.4345C0.818112 14.4345 0.5921 14.62 0.542429 14.8767L0.00498613 17.6542C-0.0236216 17.8021 0.0737814 17.945 0.222542 17.9734C0.239613 17.9767 0.256957 17.9783 0.274341 17.9783C2.04254 17.9783 3.81074 17.9783 5.57894 17.9783C9.00757 17.9783 11.4487 16.6426 11.9973 13.753Z" fill="white"/>
<path fill-rule="evenodd" clip-rule="evenodd" d="M48.9988 12.8824L50.1543 7.22408H53.5341C53.8003 7.22408 54.0281 7.03412 54.0743 6.77357L54.526 4.22829C54.5655 4.00588 54.416 3.79379 54.1923 3.75457C54.1687 3.75043 54.1448 3.74835 54.1208 3.74835H46.8851C46.7527 3.74835 46.6392 3.84232 46.6153 3.97173L44.2348 16.8569C44.2074 17.005 44.306 17.1471 44.455 17.1743C44.49 17.1807 44.5259 17.1802 44.5607 17.173L44.7449 17.1347C46.8902 16.6891 48.5628 15.0171 48.9988 12.8824Z" fill="white"/>
</svg>
