<svg width="11" height="13" viewBox="0 0 11 13" fill="none" xmlns="http://www.w3.org/2000/svg">
<path d="M8.64286 4.0625V3.25C8.64286 1.45793 7.23297 0 5.5 0C3.76701 0 2.35714 1.45793 2.35714 3.25V4.0625H0V10.9688C0 12.0906 0.879435 13 1.96429 13H9.03571C10.1206 13 11 12.0906 11 10.9688V4.0625H8.64286ZM3.92857 3.25C3.92857 2.35396 4.6335 1.625 5.5 1.625C6.3665 1.625 7.07143 2.35396 7.07143 3.25V4.0625H3.92857V3.25ZM7.85714 6.29688C7.53168 6.29688 7.26786 6.02405 7.26786 5.6875C7.26786 5.35095 7.53168 5.07812 7.85714 5.07812C8.1826 5.07812 8.44643 5.35095 8.44643 5.6875C8.44643 6.02405 8.1826 6.29688 7.85714 6.29688ZM3.14286 6.29688C2.8174 6.29688 2.55357 6.02405 2.55357 5.6875C2.55357 5.35095 2.8174 5.07812 3.14286 5.07812C3.46831 5.07812 3.73214 5.35095 3.73214 5.6875C3.73214 6.02405 3.46831 6.29688 3.14286 6.29688Z" fill="white"/>
</svg>
