<svg width="12" height="13" viewBox="0 0 12 13" fill="none" xmlns="http://www.w3.org/2000/svg">
<path d="M8.4 7.71875C7.63125 7.71875 7.26161 8.125 6 8.125C4.73839 8.125 4.37143 7.71875 3.6 7.71875C1.6125 7.71875 0 9.24727 0 11.1312V11.7812C0 12.4541 0.575893 13 1.28571 13H10.7143C11.4241 13 12 12.4541 12 11.7812V11.1312C12 9.24727 10.3875 7.71875 8.4 7.71875ZM10.7143 11.7812H1.28571V11.1312C1.28571 9.92266 2.325 8.9375 3.6 8.9375C3.99107 8.9375 4.62589 9.34375 6 9.34375C7.38482 9.34375 8.00625 8.9375 8.4 8.9375C9.675 8.9375 10.7143 9.92266 10.7143 11.1312V11.7812ZM6 7.3125C8.12946 7.3125 9.85714 5.6748 9.85714 3.65625C9.85714 1.6377 8.12946 0 6 0C3.87054 0 2.14286 1.6377 2.14286 3.65625C2.14286 5.6748 3.87054 7.3125 6 7.3125ZM6 1.21875C7.41696 1.21875 8.57143 2.31309 8.57143 3.65625C8.57143 4.99941 7.41696 6.09375 6 6.09375C4.58304 6.09375 3.42857 4.99941 3.42857 3.65625C3.42857 2.31309 4.58304 1.21875 6 1.21875Z" fill="white"/>
</svg>
